<?xml version="1.0" encoding="UTF-8"?>
<svg id="Layer_1" data-name="Layer 1" xmlns="http://www.w3.org/2000/svg" viewBox="0 0 709.72 318.54">
  <defs>
    <style>
      .cls-1 {
        fill: #a08a4b;
      }

      .cls-2 {
        fill: #f5ead0;
      }

      .cls-3 {
        fill: #0084b6;
      }
    </style>
  </defs>
  <g>
    <path class="cls-2" d="M58.37,225.87c-.78,5.21-2.15,9.37-4.12,12.48-1.97,3.11-4.49,5.33-7.57,6.68-3.08,1.34-6.69,2.01-10.85,2.01-4.27-.1-8-1.23-11.18-3.36-3.19-2.13-5.65-5.13-7.4-9.01-1.75-3.87-2.62-8.41-2.62-13.63s.9-9.73,2.7-13.55c1.8-3.82,4.35-6.77,7.65-8.85,3.3-2.08,7.22-3.12,11.77-3.12s8.83,1.15,12.35,3.44c3.52,2.29,5.97,5.94,7.36,10.94h.75l-.66-12.72c-2.38-1.27-5.29-2.36-8.73-3.28-3.44-.92-7.32-1.38-11.64-1.38-6.71,0-12.5,1.17-17.38,3.52-4.88,2.34-8.65,5.66-11.31,9.95-2.66,4.29-3.99,9.36-3.99,15.21s1.34,11.07,4.03,15.36c2.69,4.29,6.47,7.6,11.35,9.91,4.88,2.32,10.53,3.5,16.96,3.56,4.05,0,7.58-.49,10.6-1.46,3.02-.97,5.58-2.29,7.69-3.95,2.11-1.66,3.8-3.52,5.07-5.57l-.17-13.19h-.66Z"/>
    <path class="cls-2" d="M121.03,245.5c-1.03-.87-2.15-1.99-3.37-3.36-.78-.89-1.68-2-2.7-3.32-1.03-1.32-2.01-2.63-2.95-3.95-.94-1.32-1.73-2.44-2.37-3.36-.64-.92-.98-1.41-1.04-1.46-.89-1.26-2.01-2.54-3.37-3.83-1.36-1.29-2.79-2.17-4.28-2.65,2.99-.21,5.51-1.07,7.57-2.57,2.05-1.5,3.6-3.38,4.66-5.65,1.05-2.26,1.58-4.55,1.58-6.87,0-2.58-.49-4.81-1.46-6.67-.97-1.87-2.31-3.41-4.03-4.62-1.72-1.21-3.7-2.11-5.95-2.69-2.24-.58-4.61-.87-7.11-.87h-26.52v.79h1.08c1.44,0,2.68.49,3.7,1.46,1.02.98,1.57,2.15,1.62,3.52v43.76c-.06,1.37-.6,2.54-1.62,3.52-1.03.98-2.26,1.46-3.7,1.46h-1.08v.79h22.87v-.79h-1c-1.44,0-2.69-.49-3.74-1.46-1.05-.97-1.58-2.15-1.58-3.52v-46.37h1.29c.86,0,1.87-.01,3.03-.04,1.16-.02,2.27-.01,3.33.04,2.83.11,5.16,1.11,6.99,3,1.83,1.9,2.83,4.69,2.99,8.37.05.79.03,1.56-.08,2.29-.11.74-.22,1.34-.33,1.82-.56,2.32-1.44,4.12-2.66,5.41-1.22,1.29-2.59,2.17-4.12,2.65-1.53.47-3.03.74-4.53.79-.78.05-1.47.07-2.08.04-.61-.03-.97-.04-1.08-.04v.79c1.22.11,2.36.63,3.41,1.58,1.05.95,2.02,2.19,2.91,3.71.17.37.48,1,.95,1.9.47.9,1.05,1.91,1.75,3.04.69,1.13,1.4,2.3,2.12,3.52.72,1.21,1.39,2.3,2,3.28.61.98,1.08,1.7,1.41,2.17,1.22,1.74,2.66,3.19,4.32,4.34,1.66,1.16,3.62,2.03,5.86,2.61,2.24.58,4.81.87,7.69.87h6.9v-.79c-1.5,0-2.83-.22-3.99-.67-1.16-.45-2.26-1.11-3.28-1.98Z"/>
    <path class="cls-2" d="M178.07,196.05c-4.8-2.34-10.38-3.52-16.76-3.52s-12.03,1.17-16.8,3.52c-4.77,2.34-8.45,5.67-11.06,9.99-2.61,4.32-3.91,9.4-3.91,15.24s1.3,10.93,3.91,15.25c2.61,4.32,6.29,7.65,11.06,9.99,4.77,2.34,10.37,3.52,16.8,3.52s11.96-1.17,16.76-3.52c4.79-2.34,8.49-5.67,11.1-9.99,2.6-4.32,3.91-9.4,3.91-15.25s-1.3-10.93-3.91-15.24c-2.61-4.32-6.31-7.65-11.1-9.99ZM179.32,234.96c-1.69,3.85-4.07,6.82-7.15,8.93-3.08,2.11-6.69,3.16-10.85,3.16s-7.77-1.05-10.85-3.16c-3.08-2.11-5.46-5.08-7.15-8.93-1.69-3.84-2.54-8.4-2.54-13.67s.85-9.82,2.54-13.67c1.69-3.84,4.07-6.82,7.15-8.93,3.08-2.11,6.69-3.16,10.85-3.16s7.78,1.05,10.85,3.16c3.08,2.11,5.46,5.08,7.15,8.93,1.69,3.84,2.54,8.4,2.54,13.67s-.85,9.82-2.54,13.67Z"/>
    <path class="cls-2" d="M262.6,194.43h.75c1.11,0,2.02.42,2.74,1.26.72.84.86,2.05.42,3.63h.02l-9.24,30.82-16.54-37.64-.02-.13h-.75l-15.27,37.82-10.98-30.86h.14c-.61-1.58-.51-2.79.29-3.63.8-.84,1.73-1.26,2.79-1.26h.75v-.79h-23.03v.79h.66c1.28,0,2.63.38,4.08,1.15,1.44.76,2.51,2.01,3.23,3.73l19.47,50.89h.75c.06-1.37.24-2.73.54-4.07.3-1.34.79-2.91,1.46-4.7l12.95-31.53,17.74,40.29h.75c0-1.26.12-2.57.37-3.91.25-1.34.65-2.96,1.21-4.86l13.97-42.3c.62-1.63,1.64-2.82,3.07-3.56,1.5-.76,2.88-1.15,4.16-1.15h.66v-.79h-17.13v.79Z"/>
    <path class="cls-2" d="M341.43,193.64h-15.55v.79h1.58c1.44,0,2.65.46,3.62,1.38.97.92,1.48,2.07,1.54,3.44v33.74l-43.16-40.54h-.83c.61,3.74.91,7.03.91,9.88v41c0,1.32-.5,2.45-1.5,3.4-1,.95-2.19,1.42-3.58,1.42h-1.58v.79h22.53v-.79h-1.58c-1.39,0-2.58-.47-3.58-1.42-1-.95-1.5-2.08-1.5-3.4h0l-.06-33.74,43.14,40.46h.75c-.28-1.79-.5-3.45-.67-4.98-.17-1.53-.25-3.24-.25-5.13v-40.68c.05-1.37.58-2.51,1.58-3.44,1-.92,2.19-1.38,3.57-1.38h1.5v-.79h-6.9Z"/>
    <path class="cls-2" d="M396.48,193.64h-16.3v.79h1.08c1.44,0,2.68.49,3.7,1.46,1.02.98,1.57,2.15,1.62,3.52v43.76c-.06,1.37-.6,2.54-1.62,3.52-1.03.98-2.26,1.46-3.7,1.46h-1.08v.79h22.95v-.79h-1.08c-1.44,0-2.68-.49-3.7-1.46-1.03-.97-1.57-2.15-1.62-3.52v-43.76c.06-1.37.6-2.54,1.62-3.52,1.03-.97,2.26-1.46,3.7-1.46h1.08v-.79h-6.65Z"/>
    <path class="cls-2" d="M443.71,222.24l-16.05-11.3c-1.55-1.05-2.79-2.2-3.7-3.44-.91-1.24-1.32-2.52-1.2-3.83.05-2.26,1.04-4.19,2.95-5.77,1.91-1.58,4.48-2.37,7.69-2.37s5.83.79,7.86,2.37c2.02,1.58,3.03,3.71,3.03,6.4h.83l.62-9.32h.05l.08-1.66h-4.94c-.48-.07-.98-.13-1.51-.2-1.47-.18-2.93-.33-4.37-.43-1.44-.11-2.69-.16-3.74-.16-3.38,0-6.28.61-8.69,1.82-2.41,1.21-4.28,2.86-5.61,4.94-1.33,2.08-2.08,4.38-2.24,6.91-.17,2.42.29,4.75,1.37,6.99,1.08,2.24,2.9,4.15,5.45,5.73l15.05,10.82c1.88,1.05,3.27,2.23,4.16,3.52.89,1.29,1.33,2.73,1.33,4.31,0,2.74-1.04,4.98-3.12,6.71-2.08,1.74-4.84,2.66-8.27,2.77-3.05.05-5.7-.54-7.94-1.78-2.25-1.24-3.95-2.95-5.11-5.13-1.16-2.19-1.64-4.62-1.41-7.31h-.75c-.56,1.11-1.03,2.46-1.41,4.07-.39,1.61-.61,3.16-.67,4.66-.06,1.5.08,2.78.42,3.83,1.05,1,2.47,1.86,4.24,2.57,1.77.71,3.73,1.24,5.86,1.58,2.13.34,4.23.51,6.28.51,6.04,0,10.82-1.42,14.34-4.27,3.52-2.84,5.36-6.69,5.53-11.53.11-2.53-.36-4.81-1.41-6.83-1.05-2.03-2.72-3.75-4.99-5.17Z"/>
    <path class="cls-2" d="M500.17,240.21c-1.39,1.82-3.11,3.21-5.16,4.19-2.05.98-4.49,1.46-7.32,1.46h-11.14v-46.45c.05-1.37.6-2.54,1.62-3.52,1.02-.97,2.26-1.46,3.7-1.46h1.08v-.79h-22.95v.79h1.08c1.44,0,2.67.49,3.7,1.46,1.03.98,1.57,2.15,1.62,3.52v43.76c-.06,1.37-.6,2.54-1.62,3.52-1.03.98-2.26,1.46-3.7,1.46h-1.08v.79h40.25l4.16-15.01h-.83c-.89,2.37-2.02,4.46-3.41,6.28Z"/>
    <path class="cls-2" d="M564.58,247c-1.31-.73-2.39-1.95-3.25-3.63l-23.9-51.15h-.75c-.06.53-.25,1.28-.58,2.25-.33.97-.74,1.99-1.21,3.04-.47,1.05-.89,1.99-1.25,2.8-.36.82-.6,1.33-.71,1.54l-19.11,41.72c-.85,1.57-1.89,2.72-3.14,3.42-1.36.76-2.68,1.15-3.95,1.15h-.75v.79h17.46v-.79h-.75c-.67,0-1.33-.2-1.99-.59-.67-.4-1.14-.96-1.41-1.7-.28-.74-.19-1.63.25-2.69h-.03l4.72-10.98h20.49l4.55,11.1c.56,1.52.44,2.71-.37,3.55-.83.87-1.77,1.3-2.83,1.3h-.75v.79h23.87v-.79h-.66c-1.28,0-2.59-.38-3.95-1.15ZM525.52,229.19l9.2-21.4,8.78,21.4h-17.97Z"/>
    <path class="cls-2" d="M630.81,193.64h-15.55v.79h1.58c1.44,0,2.65.46,3.62,1.38.97.92,1.48,2.07,1.54,3.44v33.74l-43.16-40.54h-.83c.61,3.74.91,7.03.91,9.88v41c0,1.32-.5,2.45-1.5,3.4-1,.95-2.19,1.42-3.58,1.42h-1.58v.79h22.54v-.79h-1.58c-1.39,0-2.58-.47-3.58-1.42s-1.5-2.08-1.5-3.4h-.01l-.06-33.74,43.14,40.46h.75c-.28-1.79-.5-3.45-.66-4.98-.17-1.53-.25-3.24-.25-5.13v-40.68c.05-1.37.58-2.51,1.58-3.44,1-.92,2.19-1.38,3.57-1.38h1.5v-.79h-6.9Z"/>
    <path class="cls-2" d="M702.4,206.6c-2.55-4.16-6.17-7.36-10.85-9.6-4.68-2.24-10.19-3.36-16.5-3.36h-29.52l.08.79h1c1.44,0,2.69.49,3.74,1.46,1.05.98,1.58,2.15,1.58,3.52v43.76c-.06,1.37-.6,2.54-1.62,3.52-1.03.98-2.26,1.46-3.7,1.46h-1.08v.79h29.52c6.32,0,11.82-1.13,16.5-3.4,4.69-2.26,8.3-5.46,10.85-9.6,2.55-4.13,3.83-9.02,3.83-14.65s-1.28-10.53-3.83-14.69ZM692.59,234.32c-1.72,3.69-4.12,6.54-7.19,8.57-3.08,2.03-6.75,3.04-11.02,3.04h-12.31v-49.29h12.31c4.21,0,7.87,1.01,10.98,3.04,3.1,2.03,5.51,4.88,7.24,8.57,1.72,3.69,2.58,8.03,2.58,13.03s-.86,9.35-2.58,13.04Z"/>
  </g>
  <g>
    <path class="cls-1" d="M155.83,305.93v4.34h-20.91v-27.87h20.35v4.34h-15.17v7.25h13.46v4.26h-13.46v7.68h15.73Z"/>
    <path class="cls-1" d="M173.55,282.4h5.18v23.49h14.57v4.38h-19.75v-27.87Z"/>
    <path class="cls-1" d="M257.89,310.27l-.04-18.48-9.16,15.29h-2.31l-9.16-15.05v18.24h-4.94v-27.87h4.26l11.07,18.48,10.87-18.48h4.26l.04,27.87h-4.9Z"/>
    <path class="cls-1" d="M287.6,308.82c-2.28-1.23-4.07-2.95-5.37-5.14-1.3-2.19-1.95-4.64-1.95-7.35s.65-5.16,1.95-7.35c1.3-2.19,3.09-3.9,5.37-5.14,2.28-1.23,4.84-1.85,7.69-1.85s5.4.62,7.68,1.85,4.07,2.94,5.38,5.12c1.3,2.18,1.95,4.63,1.95,7.37s-.65,5.19-1.95,7.37c-1.3,2.18-3.09,3.88-5.38,5.12s-4.84,1.85-7.68,1.85-5.4-.62-7.69-1.85ZM300.3,304.88c1.49-.84,2.65-2,3.5-3.5.85-1.5,1.27-3.18,1.27-5.04s-.43-3.54-1.27-5.04c-.85-1.5-2.02-2.67-3.5-3.5-1.49-.84-3.16-1.25-5.02-1.25s-3.53.42-5.02,1.25c-1.49.84-2.65,2-3.5,3.5-.85,1.5-1.28,3.18-1.28,5.04s.43,3.54,1.28,5.04c.85,1.5,2.02,2.67,3.5,3.5,1.49.84,3.16,1.26,5.02,1.26s3.53-.42,5.02-1.26Z"/>
    <path class="cls-1" d="M352.5,282.4v27.87h-4.26l-15.37-18.87v18.87h-5.14v-27.87h4.26l15.37,18.87v-18.87h5.14Z"/>
    <path class="cls-1" d="M377.59,286.78h-9.24v-4.38h23.65v4.38h-9.24v23.49h-5.18v-23.49Z"/>
    <path class="cls-1" d="M424.54,303.82h-13.94l-2.75,6.45h-5.34l12.54-27.87h5.1l12.58,27.87h-5.42l-2.79-6.45ZM422.83,299.76l-5.26-12.18-5.22,12.18h10.47Z"/>
    <path class="cls-1" d="M469.9,305.89v4.38h-23.77v-3.46l16.41-20.03h-16.13v-4.38h22.98v3.46l-16.41,20.03h16.92Z"/>
    <path class="cls-1" d="M504.66,303.82h-13.94l-2.75,6.45h-5.34l12.54-27.87h5.1l12.58,27.87h-5.42l-2.79-6.45ZM502.95,299.76l-5.26-12.18-5.22,12.18h10.47Z"/>
    <path class="cls-1" d="M553.12,282.4v27.87h-5.18v-11.94h-14.42v11.94h-5.18v-27.87h5.18v11.51h14.42v-11.51h5.18Z"/>
  </g>
  <g>
    <path class="cls-3" d="M424.5,130.75c-36.1-23.52-83.77-23.35-122.56-6.52-5.62,2.35-11.05,5.07-16.46,7.89-21.73,11.1-45.71,18.51-70.23,19-24.31.42-49.46-5.74-69.17-20.38,44.11,24.95,92.62,20.1,137.16-3,5.47-2.81,11.17-5.61,16.85-7.93,28.76-12.11,61.74-15.33,91.76-6.03,8.88,2.81,17.42,6.52,25.39,11.28,2.61,1.64,5.17,3.35,7.56,5.3l-.29.4h0Z"/>
    <path class="cls-3" d="M562.74,137.24c-26.3-14.69-57.66-18.53-87.05-13.27-17.59,3.18-34.47,9.68-50.18,18.14-41.55,21.62-93.18,27.45-133.89.77-2.54-1.75-5.02-3.58-7.3-5.66l.32-.38c9.68,7.34,21.1,12.27,32.75,15.6,35.49,10.13,73.72,2.05,105.89-14.72,10.79-5.7,22.08-10.61,33.84-13.99,29.29-8.7,61.63-7.8,89.8,4.38,5.61,2.44,11.08,5.21,16.12,8.71l-.29.4h0Z"/>
  </g>
  <path class="cls-1" d="M449.82,42.74c-5.43,0-9.83,4.4-9.83,9.83,0,2.64,1.04,5.03,2.73,6.79-11.91,17.41-23.98,26.44-30.91,23.61-4.9-2-6.67-9.72-7.28-16.35,2.85-.85,4.94-3.48,4.94-6.61,0-3.81-3.09-6.9-6.9-6.9s-6.9,3.09-6.9,6.9c0,2.16.99,4.08,2.54,5.35-5.54,9.73-10.78,14.46-15.72,14.16-9.05-.55-17.09-17.96-24.11-52.23,3.68-1.51,6.27-5.12,6.27-9.33,0-5.57-4.52-10.09-10.09-10.09s-10.09,4.52-10.09,10.09c0,4.22,2.59,7.83,6.27,9.33-7.02,34.27-15.06,51.68-24.11,52.23-4.95.3-10.21-4.47-15.77-14.27,1.47-1.27,2.41-3.14,2.41-5.23,0-3.81-3.09-6.9-6.9-6.9s-6.9,3.09-6.9,6.9c0,3.2,2.18,5.88,5.12,6.66-.62,6.62-2.39,14.29-7.28,16.28-6.93,2.83-19.03-6.22-30.95-23.68,1.65-1.76,2.67-4.12,2.67-6.72,0-5.43-4.4-9.83-9.83-9.83s-9.83,4.4-9.83,9.83,4.4,9.83,9.83,9.83c1.05,0,2.06-.17,3-.47,5.87,10.71,13.05,26.69,13.71,50.37,12.09-7.89,39.32-23.86,78.64-23.33,39.32-.52,66.55,15.44,78.64,23.33.23-18.93,5.9-35.47,13.73-50.33.91.28,1.88.43,2.88.43,5.43,0,9.83-4.4,9.83-9.83s-4.4-9.83-9.83-9.83Z"/>
</svg>