<?xml version="1.0" encoding="UTF-8"?>
<svg id="Layer_1" data-name="Layer 1" xmlns="http://www.w3.org/2000/svg" viewBox="0 0 709.72 296.06">
  <defs>
    <style>
      .cls-1 {
        fill: #a08b4c;
      }

      .cls-2 {
        fill: #f5ead0;
      }
    </style>
  </defs>
  <path class="cls-1" d="M517.08,80.52c-9.13,0-16.54,7.4-16.54,16.54,0,4.61,1.89,8.77,4.93,11.77-20.75,31.51-42.18,48.07-54.27,43.12-9.32-3.81-11.9-19.89-12.56-31.75,5.84-.61,10.39-5.54,10.39-11.54,0-6.41-5.2-11.61-11.61-11.61s-11.61,5.2-11.61,11.61c0,3.88,1.91,7.3,4.83,9.41-10.19,19.24-19.78,28.62-28.77,28.07-16.58-1-31.14-35.65-43.67-103.91,7.78-1.55,13.65-8.41,13.65-16.64,0-9.37-7.6-16.97-16.97-16.97s-16.97,7.6-16.97,16.97c0,8.24,5.87,15.1,13.65,16.64-12.53,68.26-27.09,102.91-43.67,103.91-8.99.54-18.59-8.83-28.77-28.07,2.92-2.11,4.83-5.53,4.83-9.41,0-6.41-5.2-11.61-11.61-11.61s-11.61,5.2-11.61,11.61c0,6,4.55,10.93,10.39,11.54-.65,11.85-3.24,27.94-12.56,31.75-12.09,4.94-33.52-11.61-54.27-43.12,3.04-3,4.93-7.16,4.93-11.77,0-9.13-7.4-16.54-16.54-16.54s-16.54,7.4-16.54,16.54,7.4,16.54,16.54,16.54c.74,0,1.46-.06,2.17-.16,9.24,29.28,18.48,58.56,27.72,87.85,20.34-13.28,66.15-40.14,132.31-39.26,66.16-.88,111.98,25.98,132.31,39.26,9.24-29.28,18.48-58.56,27.72-87.85.71.09,1.43.16,2.17.16,9.13,0,16.54-7.4,16.54-16.54s-7.4-16.54-16.54-16.54Z"/>
  <g>
    <path class="cls-2" d="M470.96,232.59c-60.76-39.11-140.66-38.94-205.77-10.64-9.44,3.95-18.53,8.51-27.65,13.27-54.63,28.21-119.54,41.67-179.64,24.26-19.77-5.83-38.96-14.27-55.39-26.92,0,0,.94-1.13.94-1.13,70.99,39.48,157.69,27.54,227.39-9.33,9.33-4.79,19.04-9.59,28.74-13.53,49.48-20.39,106.35-25.25,157.38-7.72,19.85,7.04,39.09,16.52,54.87,30.55,0,0-.88,1.19-.88,1.19h0Z"/>
    <path class="cls-2" d="M706.33,243.51c-40.33-19.55-86.77-26.01-131-19.84-34.14,4.37-66.8,16.82-97.06,32.96-47.33,24.32-102.6,37.27-155.63,27.59-31.06-5.92-61.87-18.54-84.76-40.73,0,0,.94-1.13.94-1.13,16.27,12.23,35.5,20.44,55.04,25.94,59.58,16.95,123.72,3.38,177.71-24.78,18.17-9.59,37.24-17.87,57.05-23.56,49.38-14.61,104.01-13.22,151.44,7.56,9.44,4.15,18.63,8.85,27.14,14.81l-.87,1.19h0Z"/>
  </g>
</svg>